<svg width="51" height="46" viewBox="0 0 51 46" fill="none" xmlns="http://www.w3.org/2000/svg">
<path fill-rule="evenodd" clip-rule="evenodd" d="M20.8245 0.179178C20.2052 0.52503 20.1479 0.701261 20.0925 2.42768C20.0444 3.92958 20.0314 4.00962 19.7665 4.42239C19.418 4.96531 19.1283 5.15237 18.0239 5.54769C17.5357 5.72246 16.753 6.01122 16.2845 6.18947C15.3243 6.55459 14.584 6.61435 14.0498 6.36964C13.8734 6.28878 13.1842 5.72842 12.5183 5.12428C11.5836 4.27636 11.2238 4.00861 10.94 3.94996C10.1314 3.78291 10.0257 3.85239 7.29104 6.34991C5.89167 7.62786 4.68211 8.78501 4.60315 8.92132C4.40934 9.2556 4.42146 9.91197 4.6265 10.1905C4.71839 10.3153 5.27417 10.8718 5.86161 11.4271C7.43615 12.9156 7.57033 13.409 6.83157 14.9938C6.59296 15.5058 6.27268 16.2024 6.11986 16.5419C5.81622 17.2165 5.21615 17.908 4.7235 18.151C4.47788 18.2723 4.03274 18.3173 2.68338 18.3576C0.806107 18.4138 0.686153 18.4466 0.206638 19.0348C0.0065138 19.2803 0 19.3968 0 22.7465C0 26.0296 0.0100212 26.22 0.19822 26.505C0.563994 27.059 0.998514 27.1685 2.83109 27.1685C3.7287 27.1685 4.57168 27.2119 4.72851 27.2662C5.31185 27.468 5.84047 28.1251 6.16375 29.0502C6.2344 29.2521 6.50618 29.8716 6.76783 30.427C7.64238 32.283 7.6014 32.4759 6.01744 33.9607C4.49863 35.3845 4.45944 35.4372 4.45944 36.0573V36.5689L7.13721 39.0276C8.98603 40.7252 9.9187 41.5177 10.1501 41.5877C10.8286 41.7928 11.1188 41.6508 12.4347 40.47C13.1049 39.8687 13.8154 39.3146 14.0136 39.2388C14.8111 38.9336 15.4541 39.0465 17.6373 39.8749C19.0526 40.412 19.4627 40.6793 19.8127 41.2928C20.0817 41.7646 20.0925 41.8353 20.0925 43.1209C20.0925 44.6442 20.2262 45.063 20.817 45.3902C21.1287 45.5629 21.3365 45.5718 25.0531 45.5718H28.9613L29.2885 45.358C29.8302 45.0042 29.8882 44.8038 29.9314 43.1394C29.9873 40.9795 30.1204 40.7808 32.0207 40.0175C32.6475 39.7657 33.1727 39.5597 33.1878 39.5597C33.2029 39.5597 33.2858 39.4346 33.3721 39.2818C33.5974 38.8826 33.4753 38.4511 32.9586 37.8216C32.4965 37.2585 31.8256 36.8968 31.2477 36.899C30.4439 36.9021 28.8477 37.513 28.2767 38.0359C27.5838 38.6705 27.4752 38.9826 27.41 40.5235C27.3499 41.9475 27.2656 42.2542 26.8371 42.6094C26.4877 42.8991 25.8179 43.0476 24.8612 43.0476C23.6806 43.0476 23.1606 42.8377 22.8233 42.225C22.6202 41.8562 22.5979 41.6826 22.5979 40.4761C22.5979 39.2207 22.5817 39.1071 22.3394 38.6619C21.947 37.9405 21.2421 37.4954 19.842 37.0845C19.4562 36.9713 18.4641 36.5836 17.6373 36.2228C16.1818 35.5878 16.1103 35.5671 15.3826 35.57C14.3736 35.5741 13.9932 35.7674 12.6768 36.945C11.4503 38.0423 11.1257 38.2226 10.4936 38.1573C10.0922 38.1158 9.95688 38.0294 9.15018 37.298C8.65683 36.8508 8.18874 36.3734 8.10997 36.2371C7.73718 35.5915 8.0773 34.968 9.58299 33.5361C10.682 32.491 10.7606 32.3915 10.871 31.9044C11.0297 31.2046 10.9004 30.695 10.2281 29.3684C9.93293 28.7862 9.54892 27.9394 9.37475 27.4867C8.84453 26.109 8.42875 25.6039 7.51592 25.2282C7.09452 25.0548 6.77274 25.0134 5.49173 24.9678C3.98404 24.9141 3.9647 24.9107 3.5877 24.6348C2.98943 24.1969 2.85635 23.8684 2.85625 22.8287C2.85595 21.6199 3.08974 21.112 3.80786 20.7613C4.03344 20.6511 4.52218 20.6016 5.7622 20.5634C7.34465 20.5146 7.43635 20.5013 7.89592 20.2547C8.57015 19.8928 8.88091 19.4476 9.36343 18.1528C9.59432 17.5331 10.0623 16.5098 10.4033 15.8788C10.9968 14.7806 11.0233 14.7019 11.0233 14.043C11.0233 13.0896 10.7768 12.6713 9.50002 11.458C8.93312 10.9195 8.42394 10.3693 8.36842 10.2356C8.10647 9.60439 8.32803 9.02816 9.12823 8.25972C10.0195 7.4039 10.867 7.14607 11.7181 7.47182C11.9038 7.54286 12.545 8.03282 13.1429 8.56059C14.4787 9.73959 14.7111 9.86121 15.6331 9.86387C16.2824 9.86571 16.4267 9.82597 17.5713 9.33023C18.2514 9.03559 19.1093 8.70066 19.4775 8.58602C21.0143 8.10726 21.9153 7.55782 22.323 6.85088C22.5128 6.52173 22.5499 6.27318 22.5995 5.00202C22.6656 3.30525 22.7962 2.9426 23.4644 2.59941C24.2962 2.17214 25.992 2.23695 26.6871 2.72259C27.2547 3.11911 27.4033 3.55106 27.4058 4.81239C27.4089 6.35404 27.5786 6.86749 28.304 7.53047C28.8181 8.00042 28.9616 8.0721 30.1639 8.46082C30.8804 8.6924 31.936 9.07919 32.5098 9.32022C33.3707 9.68186 33.6817 9.76603 34.2896 9.80183C35.3687 9.86525 35.7669 9.69572 36.9279 8.67863C38.26 7.51156 38.9558 7.16553 39.7096 7.29504C40.2322 7.38481 41.4707 8.49735 41.6829 9.06762C42.0205 9.9753 41.8562 10.36 40.6333 11.5259C39.3344 12.7643 39.1869 13.0253 39.1847 14.0889C39.183 14.9032 39.1912 14.931 39.7523 16.0265C40.0653 16.6378 40.4833 17.5854 40.6809 18.1323C41.4508 20.2618 41.8639 20.5599 44.0458 20.5599C44.7672 20.5599 45.5524 20.6049 45.7906 20.6597C46.3244 20.7829 46.9284 21.2256 47.1122 21.6285C47.3007 22.0416 47.2986 23.696 47.1093 24.0294C46.7036 24.7435 46.0606 24.9656 44.3996 24.9656C42.8513 24.9656 42.3337 25.0962 41.773 25.6281C41.1314 26.2366 40.9077 26.7203 40.9547 27.3973C40.9879 27.8734 41.0522 28.035 41.3632 28.4231C41.8489 29.029 42.3946 29.3714 42.8747 29.3714C43.373 29.3714 43.6793 29.1714 44.1471 28.5405C44.6306 27.8883 45.2242 27.4146 45.7326 27.2751C45.9526 27.2147 46.7893 27.1676 47.6625 27.1665C49.5648 27.164 49.947 27.0505 50.2643 26.3934C50.4537 26.0012 50.4626 25.8078 50.4354 22.634C50.4078 19.4193 50.3986 19.2781 50.2001 19.0347C49.7095 18.4332 49.61 18.4074 47.5684 18.3533C46.514 18.3253 45.5813 18.2579 45.4323 18.1988C45.057 18.05 44.4604 17.5507 44.2836 17.2374C44.2008 17.0909 43.8406 16.3276 43.483 15.541C42.4677 13.3078 42.5508 12.9302 44.4497 11.1472C45.2932 10.3552 45.5447 10.0602 45.598 9.80054C45.7433 9.09112 45.6656 8.99162 43.1533 6.66547C40.3299 4.0512 40.1888 3.94647 39.4908 3.94647C38.8658 3.94647 38.7455 4.01623 37.5693 5.06132C36.4488 6.05683 35.7976 6.36726 34.8237 6.37038C34.3086 6.37194 34.0256 6.31264 33.4709 6.08685C33.0851 5.92971 32.428 5.67225 32.0106 5.51456C30.4657 4.93107 30.0117 4.20247 29.9463 2.20253C29.9008 0.812048 29.7882 0.481064 29.2582 0.181014C28.9533 0.0084544 28.7476 -0.000357133 25.0412 1.0014e-05C21.3558 0.000285374 21.1274 0.0100148 20.8245 0.179178ZM22.5209 11.0144C21.8053 11.1523 20.969 11.6292 20.2006 12.3377C19.6061 12.8859 19.4829 13.048 19.5384 13.2083C19.641 13.5043 19.9669 13.655 20.7439 13.7658C21.9131 13.9324 22.2948 14.1636 23.9636 15.7154C25.1337 16.8034 25.5123 17.2157 25.6521 17.5544C26.2353 18.9669 24.9263 21.1066 22.9344 21.9968C22.2354 22.3092 22.0625 22.3488 21.3953 22.3493C20.3856 22.3499 20.0776 22.1723 18.426 20.6362C16.9952 19.3056 16.7454 18.9526 16.3909 17.7604C16.14 16.9165 15.9559 16.613 15.6947 16.613C15.4383 16.613 13.9787 18.0366 13.7001 18.5584C13.3585 19.1984 13.2343 19.9845 13.3664 20.6714C13.5923 21.8459 13.7194 21.9932 17.4763 25.4349C20.6207 28.3154 21.0096 28.641 21.6437 28.9228C22.2937 29.2118 22.4106 29.2333 23.2972 29.2277C24.1399 29.2223 24.3442 29.1864 25.0471 28.9193C25.7045 28.6695 25.9223 28.6268 26.2998 28.6739C27.4423 28.8163 27.254 28.6605 36.5273 37.1345C46.0357 45.8233 45.6938 45.5455 46.8891 45.553C47.7538 45.5583 48.2057 45.3133 49.4603 44.1588C50.7228 42.9971 50.9981 42.5515 50.9981 41.6708C50.9981 40.5474 51.3634 40.9268 41.9872 32.3086C33.8587 24.8371 33.4318 24.4283 33.0843 23.7831C32.6307 22.9406 32.6096 22.4712 32.9864 21.5946C33.206 21.0838 33.2551 20.8171 33.262 20.0993C33.2698 19.2839 33.2477 19.1831 32.9286 18.5848C32.6229 18.0118 32.2516 17.6348 29.4212 15.0236C26.0478 11.9115 25.5027 11.4678 24.7174 11.1944C24.1149 10.9848 23.1048 10.902 22.5209 11.0144Z" fill="#0c79d1"/>
</svg>
