<svg width="18" height="17" viewBox="0 0 18 17" fill="none" xmlns="http://www.w3.org/2000/svg">
<path fill-rule="evenodd" clip-rule="evenodd" d="M1.37453 0.0348494C0.726418 0.124932 0.15358 0.702228 0.0347436 1.38495C0.012664 1.51203 -0.000344637 2.90304 6.94899e-06 5.0991C0.000674962 8.94504 7.72695e-05 8.9329 0.206739 9.31936C0.505692 9.87841 1.00196 10.175 1.6384 10.175H1.96558L2.00042 10.0336C2.01962 9.95586 2.29765 8.76382 2.6183 7.38468C2.96844 5.87878 3.22686 4.83949 3.26529 4.78289C3.30045 4.73105 3.38296 4.65469 3.44864 4.61321C3.5666 4.53866 3.63122 4.5378 9 4.5378C14.3688 4.5378 14.4334 4.53866 14.5514 4.61321C14.617 4.65469 14.6996 4.73105 14.7347 4.78289C14.7731 4.83949 15.0316 5.87878 15.3817 7.38468C15.7023 8.76382 15.9804 9.95586 15.9996 10.0336L16.0344 10.175H16.3616C16.998 10.175 17.4943 9.87841 17.7933 9.31936C17.9999 8.9329 17.9993 8.94504 18 5.0991C18.0003 2.90304 17.9873 1.51203 17.9653 1.38495C17.8433 0.684355 17.2795 0.128476 16.5939 0.0330772C16.269 -0.0121714 1.70045 -0.0104369 1.37453 0.0348494ZM6.04299 2.35078C6.39531 2.57337 6.41722 3.06443 6.08543 3.30213C5.97134 3.38388 5.93491 3.38773 5.27319 3.38773C4.61147 3.38773 4.57505 3.38388 4.46096 3.30213C4.07362 3.02461 4.18433 2.41617 4.64466 2.29245C4.70995 2.27492 5.02445 2.26387 5.34351 2.26794C5.85275 2.27446 5.93822 2.28457 6.04299 2.35078ZM9.24242 2.35078C9.59474 2.57337 9.61664 3.06443 9.28485 3.30213C9.17076 3.38388 9.13434 3.38773 8.47262 3.38773C7.8109 3.38773 7.77448 3.38388 7.66039 3.30213C7.27305 3.02461 7.38376 2.41617 7.84409 2.29245C7.90938 2.27492 8.22387 2.26387 8.54294 2.26794C9.05217 2.27446 9.13764 2.28457 9.24242 2.35078ZM11.3944 2.37982C11.5321 2.4785 11.6368 2.67763 11.6368 2.84098C11.6368 3.00432 11.5321 3.20345 11.3944 3.30213C11.144 3.48151 10.7801 3.37642 10.6437 3.08532C10.4707 2.71598 10.719 2.29422 11.1095 2.29422C11.2229 2.29422 11.3124 2.32111 11.3944 2.37982ZM13.539 2.37982C13.6768 2.4785 13.7815 2.67763 13.7815 2.84098C13.7815 3.00432 13.6768 3.20345 13.539 3.30213C13.2887 3.48151 12.9247 3.37642 12.7884 3.08532C12.6154 2.71598 12.8637 2.29422 13.2542 2.29422C13.3676 2.29422 13.4571 2.32111 13.539 2.37982ZM4.09552 5.69718C4.08712 5.72316 4.02608 5.97776 3.95988 6.2629L3.83953 6.78137H8.99975H14.16L14.0301 6.22519L13.9002 5.66901L9.00552 5.65947C5.10767 5.65185 4.10772 5.65951 4.09552 5.69718ZM3.568 7.9596C3.54754 8.02231 3.0582 10.1296 3.0582 10.1551C3.0582 10.1661 5.73201 10.175 9 10.175C12.268 10.175 14.9413 10.1623 14.9408 10.1467C14.9402 10.1312 14.8245 9.62637 14.6837 9.02494L14.4276 7.93144L9.00552 7.9219C4.6858 7.91428 3.58031 7.92194 3.568 7.9596ZM5.13256 11.4083C4.96654 11.4733 4.81613 11.7206 4.81613 11.9284C4.81613 12.1092 4.88037 12.2304 5.09613 12.4563C5.36823 12.7412 5.43995 13.0989 5.28919 13.4189C5.26447 13.4713 5.10053 13.6552 4.92481 13.8274C4.44595 14.2968 4.25359 14.7251 4.25359 15.322C4.25359 15.8408 4.41536 16.2698 4.75351 16.6474C4.99639 16.9187 5.13453 17 5.35241 17C5.56564 17 5.72688 16.8785 5.81449 16.6517C5.91136 16.401 5.85675 16.2218 5.6041 15.9615C5.38559 15.7363 5.30835 15.5678 5.30835 15.3163C5.30835 15.0459 5.41956 14.8414 5.69446 14.6062C6.03142 14.3178 6.23671 14.0025 6.35485 13.5921C6.42938 13.3329 6.42748 12.7819 6.35108 12.5129C6.18085 11.9135 5.70392 11.378 5.34629 11.3846C5.25772 11.3862 5.16156 11.3969 5.13256 11.4083ZM8.82421 11.4083C8.65819 11.4733 8.50778 11.7206 8.50778 11.9284C8.50778 12.1092 8.57201 12.2304 8.78778 12.4563C9.05987 12.7412 9.1316 13.0989 8.98084 13.4189C8.95612 13.4713 8.79218 13.6552 8.61646 13.8274C8.1376 14.2968 7.94524 14.7251 7.94524 15.322C7.94524 15.8408 8.10701 16.2698 8.44516 16.6474C8.68804 16.9187 8.82617 17 9.04405 17C9.25729 17 9.41853 16.8785 9.50614 16.6517C9.603 16.401 9.5484 16.2218 9.29575 15.9615C9.07724 15.7363 9 15.5678 9 15.3163C9 15.0459 9.11121 14.8414 9.38611 14.6062C9.72307 14.3178 9.92836 14.0025 10.0465 13.5921C10.121 13.3329 10.1191 12.7819 10.0427 12.5129C9.87249 11.9135 9.39557 11.378 9.03794 11.3846C8.94937 11.3862 8.85321 11.3969 8.82421 11.4083ZM12.5159 11.4083C12.3498 11.4733 12.1994 11.7206 12.1994 11.9284C12.1994 12.1092 12.2637 12.2304 12.4794 12.4563C12.7515 12.7412 12.8232 13.0989 12.6725 13.4189C12.6478 13.4713 12.4838 13.6552 12.3081 13.8274C11.8292 14.2968 11.6369 14.7251 11.6369 15.322C11.6369 15.8408 11.7987 16.2698 12.1368 16.6474C12.3797 16.9187 12.5178 17 12.7357 17C12.9489 17 13.1102 16.8785 13.1978 16.6517C13.2947 16.401 13.2401 16.2218 12.9874 15.9615C12.7689 15.7363 12.6916 15.5678 12.6916 15.3163C12.6916 15.0459 12.8029 14.8414 13.0778 14.6062C13.4147 14.3178 13.62 14.0025 13.7381 13.5921C13.8127 13.3329 13.8108 12.7819 13.7344 12.5129C13.5641 11.9135 13.0872 11.378 12.7296 11.3846C12.641 11.3862 12.5449 11.3969 12.5159 11.4083Z" fill="#1968A7"/>
</svg>
