<svg width="20" height="18" viewBox="0 0 20 18" fill="none" xmlns="http://www.w3.org/2000/svg">
<path fill-rule="evenodd" clip-rule="evenodd" d="M10.3929 0.0754432C10.2939 0.119563 10.1806 0.209596 10.1196 0.292527L10.0154 0.434238L10.0048 2.62525L9.99414 4.81627H14.9938H19.9934L19.9828 2.62525L19.9722 0.434238L19.8674 0.291683C19.8043 0.205834 19.6945 0.119493 19.5915 0.0745643L19.4204 0L14.9912 3.51553e-05L10.562 7.03105e-05L10.3929 0.0754432ZM13.8324 1.83641L13.1206 2.47732L12.8659 2.25004L12.6112 2.0228L13.3238 1.38051L14.0364 0.738225L14.2903 0.96684L14.5443 1.19549L13.8324 1.83641ZM16.0681 1.3012L16.3004 1.51259L14.8766 2.79491L13.4527 4.07724L13.2076 3.8585L12.9624 3.63976L14.3781 2.36479C15.1568 1.66355 15.8033 1.08981 15.8148 1.08981C15.8263 1.08981 15.9403 1.18494 16.0681 1.3012ZM16.781 2.57576L17.0235 2.79614L16.3105 3.43741L15.5975 4.07868L15.3452 3.8495L15.0929 3.62032L15.7946 2.98788C16.1805 2.64002 16.5057 2.3554 16.5173 2.3554C16.5289 2.3554 16.6476 2.45458 16.781 2.57576ZM10.0015 5.72408C10.0172 6.03524 10.0993 6.18209 10.3409 6.33111L10.4782 6.41583H14.9938H19.5094L19.6467 6.33111C19.8883 6.18209 19.9704 6.03524 19.9861 5.72408L20 5.44906H14.9938H9.98758L10.0015 5.72408ZM3.58871 6.80381C3.35775 6.86867 3.09052 7.0816 2.96717 7.29904L2.86991 7.47049V10.1247V12.7789L2.96717 12.9504C3.09509 13.1759 3.35877 13.3812 3.60507 13.4471C3.89425 13.5244 10.5525 13.5262 10.7577 13.449C10.9382 13.3811 11.0498 13.209 11.05 12.9981C11.0501 12.8564 11.0296 12.8104 10.9165 12.6993L10.783 12.568L9.78501 12.5504L8.78707 12.5328L8.67887 12.4354L8.57067 12.3379L8.55115 9.86906C8.53518 7.84743 8.52175 7.38426 8.47715 7.31229C8.35713 7.11859 8.19524 6.96964 7.99763 6.87106L7.78974 6.76739L5.77886 6.76043C4.1272 6.75473 3.73595 6.76246 3.58871 6.80381ZM14.1937 7.10941C14.1841 7.13399 14.0696 7.54168 13.9392 8.0154C13.8087 8.48912 13.6928 8.90437 13.6815 8.93822C13.6622 8.99598 13.7426 8.99975 14.9919 8.99975H16.3229L16.2957 8.90307C16.2807 8.84991 16.1607 8.41881 16.0289 7.94509L15.7894 7.08378L15.0002 7.07426C14.3895 7.06691 14.2071 7.07485 14.1937 7.10941ZM0 9.96708V10.3016L1.06401 10.2923L2.12803 10.2829L2.13927 9.95773L2.15048 9.63254H1.07526H0V9.96708ZM9.29303 9.96651V10.3005H14.6424H19.9917V9.96651V9.63254H14.6424H9.29303V9.96651ZM0 14.4664V17.9995H0.351417H0.702834V14.4664V10.9333H0.351417H0V14.4664ZM19.2889 14.4664V17.9995H19.6403H19.9917V14.4664V10.9333H19.6403H19.2889V14.4664ZM6.07823 14.1559C6.0639 14.1687 6.05218 14.7073 6.05218 15.3527V16.5262L5.95632 16.6124C5.86394 16.6957 5.84133 16.6987 5.3274 16.6987C4.83444 16.6987 4.79657 16.7034 4.82402 16.7603C4.91632 16.9518 4.99555 17.1856 4.99664 17.27L4.99793 17.3667H6.41867H7.83945L7.86663 17.1997C7.88158 17.1078 7.9275 16.9635 7.96869 16.8788C8.00985 16.7942 8.04354 16.7191 8.04354 16.7119C8.04354 16.7047 7.80872 16.6987 7.52173 16.6987C7.01003 16.6987 6.99796 16.697 6.89699 16.6061L6.79406 16.5134V15.3229V14.1324H6.44917C6.25944 14.1324 6.09252 14.143 6.07823 14.1559ZM13.6056 14.3521C13.6186 14.473 13.681 15.2442 13.7443 16.066C13.8076 16.8877 13.87 17.6589 13.883 17.7798L13.9067 17.9995H15.3476H16.7884L16.8063 17.9204C16.822 17.8509 17.1041 14.2894 17.1028 14.1764C17.1024 14.1419 16.724 14.1324 15.3421 14.1324H13.5819L13.6056 14.3521ZM3.3836 16.7518C2.79494 16.8863 2.67385 17.5754 3.1836 17.8899C3.46021 18.0606 3.78703 18.0312 4.03891 17.8131C4.584 17.3412 4.11658 16.5842 3.3836 16.7518ZM9.11982 16.7415C8.79542 16.8031 8.58153 17.0534 8.58422 17.3681C8.58594 17.5675 8.65895 17.7105 8.82209 17.8341C9.18151 18.1064 9.71289 18.0114 9.91304 17.6391C10.0113 17.4564 10.0179 17.3064 9.93542 17.1288C9.79145 16.8185 9.48369 16.6723 9.11982 16.7415Z" fill="#1968A7"/>
</svg>
