<svg width="9" height="15" viewBox="0 0 9 15" fill="none" xmlns="http://www.w3.org/2000/svg">
<path fill-rule="evenodd" clip-rule="evenodd" d="M3.09583 0.0541735C3.01814 0.0994694 2.78734 0.524068 1.65448 2.70557C0.260417 5.3901 0.238064 5.43897 0.345141 5.56812C0.460233 5.70694 0.498587 5.71327 1.22401 5.71327C1.93828 5.71327 1.99939 5.72217 2.10085 5.84122C2.22374 5.98539 2.20552 6.02852 1.23055 7.90236C0.24608 9.79441 0.238126 9.81355 0.368665 9.97129C0.464026 10.0865 0.604492 10.1077 1.27112 10.1079C1.63083 10.108 1.90646 10.1205 1.94136 10.1383C2.0164 10.1764 2.09382 10.3168 2.09382 10.4146C2.09382 10.456 1.62753 11.4026 1.05765 12.5183C0.377298 13.8502 0.0159873 14.5893 0.00547392 14.6706C-0.00898589 14.7825 -0.000137253 14.8042 0.0982141 14.8977C0.217438 15.0109 0.316067 15.0281 0.453605 14.9594C0.585932 14.8934 5.63148 10.0731 5.67057 9.97539C5.72064 9.85023 5.68285 9.7132 5.57432 9.62642C5.48778 9.55721 5.45735 9.55141 5.18144 9.55141C4.78295 9.55141 4.65568 9.47582 4.65379 9.23806C4.65269 9.0993 4.49874 9.29546 6.35077 7.07566C6.902 6.41497 7.37674 5.8418 7.40572 5.80195C7.493 5.68203 7.47389 5.54629 7.35362 5.432L7.24879 5.33238H6.4888C5.65282 5.33238 5.59029 5.32131 5.50119 5.15756C5.43925 5.0437 5.44233 4.95569 5.51207 4.84895C5.54364 4.80061 6.34134 3.78611 7.28474 2.59447C8.86866 0.59377 9 0.419149 9 0.313556C9 0.222612 8.97857 0.178869 8.89517 0.0996159L8.79035 0L5.98934 0.000117195C3.32306 0.000205092 3.18389 0.00281268 3.09583 0.0541735Z" fill="#1968A7"/>
</svg>
