<svg width="17" height="18" viewBox="0 0 17 18" fill="none" xmlns="http://www.w3.org/2000/svg">
<path fill-rule="evenodd" clip-rule="evenodd" d="M2.77629 0.0474643C2.63633 0.113545 2.5095 0.255324 2.45557 0.405997C2.42731 0.484875 2.41499 2.98104 2.41499 8.62395V16.7286L1.39084 16.7405C0.425266 16.7518 0.360689 16.7572 0.26177 16.8354C0.0622192 16.9932 0 17.1218 0 17.3762C0 17.6307 0.0622952 17.7593 0.261846 17.917L0.366888 18H8.5H16.6331L16.7382 17.917C16.9377 17.7593 17 17.6307 17 17.3762C17 17.1218 16.9378 16.9932 16.7382 16.8354C16.6393 16.7572 16.5747 16.7518 15.6094 16.7405L14.5855 16.7286L14.5758 8.56391L14.566 0.399236L14.4876 0.288082C14.4444 0.226952 14.3619 0.139623 14.3041 0.0939863C14.1993 0.0111242 14.1899 0.0110035 8.54476 0.0023108C3.89038 -0.00485261 2.87019 0.00315583 2.77629 0.0474643ZM11.8701 2.66959C12.0697 2.82727 12.132 2.95589 12.132 3.21039C12.132 3.46489 12.0697 3.59351 11.8701 3.75119C11.7664 3.8332 11.7287 3.83429 8.58279 3.8462C6.41904 3.85437 5.35591 3.84455 5.26137 3.8155C4.87493 3.69686 4.72566 3.13779 4.99123 2.80381C5.18667 2.55804 5.02816 2.5681 8.54476 2.57776C11.7314 2.58653 11.7662 2.58749 11.8701 2.66959ZM11.8701 5.2452C12.0697 5.40287 12.132 5.53149 12.132 5.786C12.132 6.0405 12.0697 6.16912 11.8701 6.32679C11.7664 6.40881 11.7287 6.40989 8.58279 6.42181C6.41904 6.42998 5.35591 6.42016 5.26137 6.3911C4.87493 6.27246 4.72566 5.7134 4.99123 5.37941C5.18667 5.13364 5.02816 5.1437 8.54476 5.15336C11.7314 5.16213 11.7662 5.1631 11.8701 5.2452ZM11.8701 7.8208C12.0697 7.97848 12.132 8.1071 12.132 8.3616C12.132 8.6161 12.0697 8.74472 11.8701 8.9024C11.7664 8.98441 11.7287 8.9855 8.58279 8.99741C6.41904 9.00558 5.35591 8.99576 5.26137 8.96671C4.87493 8.84807 4.72566 8.289 4.99123 7.95502C5.18667 7.70925 5.02816 7.71931 8.54476 7.72897C11.7314 7.73774 11.7662 7.73871 11.8701 7.8208ZM11.8701 10.3964C12.0697 10.5541 12.132 10.6827 12.132 10.9372C12.132 11.1917 12.0697 11.3203 11.8701 11.478C11.7664 11.56 11.7287 11.5611 8.58279 11.573C6.41904 11.5812 5.35591 11.5714 5.26137 11.5423C4.87493 11.4237 4.72566 10.8646 4.99123 10.5306C5.18667 10.2849 5.02816 10.2949 8.54476 10.3046C11.7314 10.3133 11.7662 10.3143 11.8701 10.3964ZM10.934 15.4445V16.7323H8.5H6.066V15.4445V14.1567H8.5H10.934V15.4445Z" fill="#1968A7"/>
</svg>
