<svg width="20" height="18" viewBox="0 0 20 18" fill="none" xmlns="http://www.w3.org/2000/svg">
<path fill-rule="evenodd" clip-rule="evenodd" d="M5.488 0.0531883C5.02467 0.190432 4.73012 0.447043 4.59488 0.831291C4.41861 1.33209 4.74299 1.90313 5.32975 2.12501C5.73675 2.2789 6.11051 2.27098 7.51472 2.07877L8.16941 1.98914L8.28824 2.09661C8.3536 2.1557 8.45684 2.21436 8.51765 2.22696C8.68246 2.26113 8.83521 2.21693 8.96828 2.09661L9.08711 1.98914L9.74179 2.07877C11.146 2.27098 11.5198 2.2789 11.9268 2.12501C12.7677 1.80706 12.969 0.867749 12.3125 0.32553C12.2236 0.252122 12.0437 0.150561 11.9128 0.0998513C11.7027 0.0184902 11.6247 0.00807379 11.2487 0.0112761C10.785 0.0151823 9.81129 0.123535 9.0863 0.251875L8.62826 0.332955L8.17022 0.251981C7.56355 0.144719 6.61632 0.0320387 6.11435 0.00740517C5.7837 -0.00881778 5.66896 -0.000442374 5.488 0.0531883ZM6.77478 0.818693C7.03256 0.845825 7.55507 0.919057 7.93587 0.98145L8.62826 1.09487L9.32065 0.981521C10.1444 0.846705 10.8265 0.766259 11.2315 0.756194C11.5106 0.749226 11.5339 0.754822 11.6598 0.85881C11.7665 0.946928 11.7929 0.99799 11.7929 1.11616C11.7929 1.23433 11.7665 1.28539 11.6598 1.37351C11.5339 1.4775 11.5106 1.48309 11.2315 1.47613C10.8265 1.46606 10.1444 1.38562 9.32065 1.2508L8.62826 1.13745L7.93587 1.2508C7.11216 1.38562 6.43003 1.46606 6.02504 1.47613C5.74591 1.48309 5.72264 1.4775 5.59674 1.37351C5.41573 1.22406 5.40964 1.01819 5.58178 0.86979C5.75392 0.721391 5.82235 0.71847 6.77478 0.818693ZM7.36478 3.01819C6.83814 3.09473 6.43114 3.28117 6.05154 3.61981C5.79001 3.85312 5.65119 4.05441 5.53223 4.37282C5.46056 4.56468 5.45391 4.73462 5.45391 6.37718C5.45391 8.13056 5.45608 8.17757 5.54799 8.41824C5.78149 9.02947 6.41214 9.52313 7.16691 9.6855C7.51749 9.76091 9.73902 9.76091 10.0896 9.6855C10.4659 9.60452 10.8177 9.44061 11.0937 9.21757C11.4127 8.95983 11.5894 8.72996 11.7085 8.41824C11.8004 8.17757 11.8026 8.13056 11.8026 6.37718C11.8026 4.41251 11.8035 4.42012 11.5372 3.98572C11.3976 3.75797 10.8844 3.33374 10.6096 3.21891C10.1324 3.01952 10.0182 3.00576 8.75609 2.99566C8.11163 2.99049 7.48554 3.00063 7.36478 3.01819ZM0.255652 4.54325C-0.00102255 4.63569 6.39054e-08 4.62813 6.39054e-08 6.39945V8.01221L0.139288 8.12725L0.278576 8.24229H2.24842C4.08149 8.24229 4.22619 8.23786 4.33224 8.17838C4.39496 8.14323 4.46684 8.06567 4.49202 8.00598C4.52197 7.93497 4.53783 7.36344 4.53783 6.35258C4.53783 4.65772 4.53765 4.65635 4.28358 4.54786C4.17723 4.50243 3.87718 4.49468 2.27104 4.49585C0.812974 4.4969 0.354376 4.50771 0.255652 4.54325ZM12.9642 4.54772C12.7194 4.66131 12.7187 4.66638 12.7187 6.35258C12.7187 7.36344 12.7345 7.93497 12.7645 8.00598C12.8505 8.20974 12.9614 8.23863 13.7413 8.26059C14.4888 8.28163 14.6329 8.30975 14.9202 8.49077C15.1172 8.61485 15.3177 8.86904 15.3862 9.08159C15.4278 9.21074 15.4448 9.5036 15.4451 10.1004C15.4456 10.7795 15.4579 10.9574 15.5103 11.0411C15.6416 11.251 15.6433 11.2511 17.6954 11.2511C18.9194 11.2511 19.6114 11.238 19.6974 11.2133C19.9762 11.133 19.982 11.1074 19.9972 9.87866C20.0127 8.6258 19.9657 8.034 19.8131 7.56321C19.391 6.26056 18.1539 5.15662 16.6387 4.73046C15.9656 4.54117 15.7694 4.52178 14.3804 4.50721C13.2688 4.49556 13.064 4.50141 12.9642 4.54772ZM17.4854 12.8174C17.2915 12.9044 16.3811 14.1168 15.9386 14.8772C15.3667 15.8602 15.3119 16.3755 15.7128 17.0012C15.8891 17.2763 16.3313 17.6415 16.6644 17.7871C17.3489 18.0863 18.1998 18.069 18.8751 17.7422C19.6024 17.3902 20.0882 16.5887 19.9621 15.9489C19.8539 15.3994 19.3768 14.5717 18.5245 13.4547C18.0138 12.7855 17.8206 12.667 17.4854 12.8174Z" fill="#1968A7"/>
</svg>
