<svg width="17" height="16" viewBox="0 0 17 16" fill="none" xmlns="http://www.w3.org/2000/svg">
<path fill-rule="evenodd" clip-rule="evenodd" d="M13.033 0.03819C12.8592 0.0897685 12.5627 0.378768 12.5094 0.548607C12.4766 0.653165 12.4663 1.6833 12.4663 4.8746V9.06336H13.3164H14.1664V4.8746C14.1664 1.73501 14.1559 0.652698 14.1243 0.553542C14.0626 0.359664 13.8111 0.111907 13.6107 0.0476255C13.4235 -0.0124216 13.2151 -0.0158224 13.033 0.03819ZM3.38843 4.31524C2.36864 4.48875 1.43831 5.21428 1.06396 6.12796C0.956926 6.38925 0.848755 6.86976 0.848755 7.08394V7.19627H1.12754H1.40633L1.43151 6.95551C1.48935 6.40302 1.73683 5.92101 2.17387 5.50961C2.49115 5.21095 2.78889 5.03674 3.21594 4.89991C3.48736 4.81295 3.48807 4.81289 4.67405 4.81289C5.86003 4.81289 5.86074 4.81295 6.13216 4.89991C6.55921 5.03674 6.85695 5.21095 7.17423 5.50961C7.61127 5.92101 7.85875 6.40302 7.91659 6.95551L7.94177 7.19627H8.22056H8.49934V7.08394C8.49934 7.02216 8.47505 6.84042 8.44533 6.68005C8.22382 5.48438 7.20062 4.52155 5.92974 4.31294C5.51547 4.24492 3.7925 4.24649 3.38843 4.31524ZM0.5654 7.7733C0.391561 7.82488 0.0950657 8.11388 0.0417595 8.28372C-0.0139198 8.46109 -0.0139198 9.13218 0.0417595 9.30956C0.0992452 9.4927 0.39266 9.76889 0.587218 9.82301C0.682001 9.84935 1.00116 9.86355 1.49927 9.86355H2.26553V8.79664V7.72972L1.47745 7.73313C1.01214 7.73513 0.638576 7.7516 0.5654 7.7733ZM2.83224 9.06336V10.397H4.67405H6.51586V9.06336V7.72972H4.67405H2.83224V9.06336ZM7.08257 8.79664V9.86355H7.84883C8.75886 9.86355 8.83732 9.84774 9.08497 9.61462C9.30903 9.40371 9.34941 9.27881 9.34941 8.79664C9.34941 8.3377 9.30935 8.2026 9.11207 7.99605C8.87805 7.75103 8.77753 7.72972 7.85549 7.72972H7.08257V8.79664ZM10.1995 9.6404C10.0256 9.69198 9.72914 9.98098 9.67584 10.1508C9.65214 10.2263 9.63277 10.4558 9.63277 10.6608C9.63277 11.0121 9.63776 11.0382 9.71972 11.1153L9.80664 11.1972H13.3164H16.8261L16.913 11.1153C16.995 11.0382 17 11.0121 17 10.6608C17 10.4558 16.9806 10.2263 16.9569 10.1508C16.8994 9.96767 16.606 9.69148 16.4115 9.63736C16.214 9.58245 10.3852 9.58532 10.1995 9.6404ZM0.652355 10.572C0.664008 10.6683 0.769309 11.7898 0.886335 13.0643C1.08865 15.2672 1.1036 15.3901 1.18921 15.5568C1.28668 15.7465 1.44458 15.8802 1.65448 15.9507C1.85003 16.0164 7.49807 16.0164 7.69362 15.9507C7.89863 15.8819 8.0667 15.7435 8.16329 15.564C8.2467 15.4091 8.26317 15.2724 8.48146 12.9238C8.60805 11.5616 8.71168 10.4358 8.71175 10.422C8.71183 10.4082 8.34527 10.397 7.89721 10.397H7.08257V11.385C7.08257 12.0633 7.06907 12.4161 7.0395 12.5103C6.98201 12.6934 6.6886 12.9696 6.49404 13.0237C6.28723 13.0813 3.06087 13.0813 2.85406 13.0237C2.6595 12.9696 2.36609 12.6934 2.3086 12.5103C2.27903 12.4161 2.26553 12.0633 2.26553 11.385V10.397H1.44833H0.631138L0.652355 10.572ZM2.83224 11.1972V11.4639H4.67405H6.51586V11.1972V10.9305H4.67405H2.83224V11.1972ZM9.86742 11.8348C9.79612 12.1705 9.8716 12.5658 10.0699 12.8951C10.1663 13.0552 10.1818 13.1136 10.1818 13.3165C10.1818 13.5269 10.1647 13.5858 10.0224 13.8667C9.8648 14.1776 9.86299 14.1852 9.86299 14.5313C9.86299 14.8751 9.86575 14.8868 10.0154 15.182C10.1069 15.3622 10.1793 15.5614 10.1963 15.6796C10.2412 15.9913 10.2593 15.9983 11.0164 15.9983H11.6484L11.6722 15.8791C11.7106 15.6864 11.6647 15.4968 11.5027 15.1794C11.3533 14.8866 11.3506 14.8752 11.3506 14.5313C11.3506 14.1852 11.3524 14.1776 11.51 13.8669C11.6494 13.592 11.6694 13.5248 11.6694 13.331C11.6694 13.1386 11.6492 13.0694 11.5156 12.8048C11.3877 12.5514 11.3587 12.4566 11.3431 12.2405C11.3328 12.0976 11.3409 11.9245 11.3612 11.8557L11.398 11.7306H10.6438H9.88956L9.86742 11.8348ZM11.9348 11.8815C11.867 12.1093 11.9086 12.3413 12.076 12.6686C12.3228 13.1512 12.3138 13.5588 12.0454 14.0478C11.9317 14.2551 11.9173 14.3092 11.9173 14.5313C11.9173 14.7472 11.9326 14.8088 12.0292 14.9826C12.192 15.2752 12.2617 15.5307 12.2479 15.7831L12.2361 15.9984L12.6861 15.9984L13.1361 15.9983L13.1598 15.8791C13.1982 15.6864 13.1523 15.4968 12.9903 15.1794C12.8409 14.8866 12.8382 14.8752 12.8382 14.5313C12.8382 14.1852 12.84 14.1776 12.9976 13.8669C13.137 13.592 13.157 13.5248 13.157 13.331C13.157 13.1372 13.137 13.0701 12.9976 12.7951L12.8382 12.4808V12.1057V11.7306L12.4089 11.7306H11.9797L11.9348 11.8815ZM13.4215 11.8506C13.3497 12.0555 13.3918 12.3546 13.5267 12.5984C13.8137 13.1172 13.8134 13.5471 13.5255 14.0645C13.4195 14.255 13.4049 14.3115 13.4049 14.5313C13.4049 14.7472 13.4202 14.8088 13.5169 14.9826C13.6796 15.2752 13.7494 15.5307 13.7355 15.7831L13.7237 15.9984L14.1737 15.9984L14.6237 15.9983L14.6474 15.8791C14.6858 15.6864 14.6399 15.4968 14.478 15.1794C14.3285 14.8866 14.3258 14.8752 14.3258 14.5313C14.3258 14.1852 14.3276 14.1776 14.4852 13.8667C14.6276 13.5858 14.6446 13.5269 14.6446 13.3165C14.6446 13.1132 14.6292 13.0553 14.5319 12.8937C14.3536 12.5976 14.2962 12.3655 14.3169 12.0242L14.3347 11.7306H13.8991H13.4636L13.4215 11.8506ZM14.9137 11.8356C14.8282 12.0665 14.8635 12.2873 15.0431 12.6454C15.2105 12.9792 15.2113 12.9827 15.2113 13.331C15.2113 13.6771 15.2095 13.6847 15.0519 13.9954C14.9125 14.2703 14.8925 14.3375 14.8925 14.5313C14.8925 14.7247 14.9127 14.7927 15.0508 15.0663C15.2023 15.3665 15.2091 15.3929 15.2102 15.6888L15.2113 15.9979L15.877 15.9981C16.5368 15.9983 16.5436 15.9976 16.6297 15.9164C16.7816 15.7735 16.7307 15.4115 16.5007 14.9981C16.3966 14.811 16.3802 14.7491 16.3802 14.5455C16.3802 14.3365 16.3976 14.2753 16.5332 14.0066C16.7859 13.506 16.7788 13.1071 16.5082 12.6142C16.3945 12.4069 16.3802 12.3528 16.3802 12.1307C16.3802 11.9932 16.3932 11.8469 16.4091 11.8057L16.4381 11.7306H15.6953H14.9526L14.9137 11.8356ZM2.83224 12.1822C2.83224 12.3341 2.84779 12.3818 2.9192 12.449L3.00611 12.5308H4.67405H6.34198L6.4289 12.449C6.50031 12.3818 6.51586 12.3341 6.51586 12.1822V11.9974H4.67405H2.83224V12.1822Z" fill="#1968A7"/>
</svg>
